<svg width="29" height="33" viewBox="0 0 29 33" fill="none" xmlns="http://www.w3.org/2000/svg">
<path d="M28.0078 0H5.22207C3.85122 0.000417639 2.53563 0.538179 1.55992 1.49695C0.584199 2.45573 0.026796 3.75843 0.00828571 5.12325L0 5.11294V27.8004C0.00027459 29.1794 0.550544 30.5017 1.52981 31.4768C2.50908 32.4518 3.83718 32.9997 5.22207 33H22.8292C23.9726 33 24.8571 32.076 24.8571 30.9375V9.28125C24.8571 8.712 24.4366 8.25 23.8649 8.25H5.22207C3.48414 8.25 2.07143 6.92794 2.07143 5.19956C2.07225 4.36781 2.40446 3.57036 2.99514 2.98223C3.58582 2.39409 4.38672 2.06332 5.22207 2.0625H26.9286V25.7812C26.9286 26.3505 27.4361 26.8125 28.0078 26.8125C28.5795 26.8125 29 26.3505 29 25.7812V1.03125C29 0.462 28.5795 0 28.0078 0ZM5.22207 10.3125H22.7878L22.8292 30.9375H5.22207C4.38672 30.9367 3.58582 30.6059 2.99514 30.0178C2.40446 29.4296 2.07225 28.6322 2.07143 27.8004V9.30394C2.94143 9.93919 4.02893 10.3125 5.22207 10.3125Z" fill="#361C25"/>
</svg>
