<svg width="35" height="35" viewBox="0 0 35 35" fill="none" xmlns="http://www.w3.org/2000/svg">
<path d="M1.08008 22.6164C1.73462 22.8855 2.48657 22.7368 2.98731 22.2371L5.25 19.975L7.5127 22.2371C7.84766 22.572 8.29456 22.7496 8.75 22.7496C8.97559 22.7496 9.20288 22.7061 9.41992 22.6164C10.0736 22.3456 10.5 21.7074 10.5 21.0001V14.0053C10.5 13.0391 9.71643 12.2557 8.75 12.2557C7.78357 12.2557 7 13.0391 7 14.0053V16.7765L6.4873 16.264C5.80371 15.5805 4.69629 15.5805 4.0127 16.264L3.5 16.7765V14.0053C3.5 13.0391 2.71643 12.2557 1.75 12.2557C0.78357 12.2557 0 13.0391 0 14.0053V21.0001C0 21.7074 0.426391 22.3456 1.08008 22.6164ZM14 12.2557C13.0336 12.2557 12.25 13.0391 12.25 14.0053V21.0001C12.25 21.7074 12.6764 22.3456 13.3301 22.6164C13.9829 22.8855 14.7357 22.7368 15.2373 22.2371L17.5 19.975L19.7627 22.2371C20.0977 22.572 20.5446 22.7496 21 22.7496C21.2256 22.7496 21.4529 22.7061 21.6699 22.6164C22.3236 22.3456 22.75 21.7074 22.75 21.0001V14.0053C22.75 13.0391 21.9664 12.2557 21 12.2557C20.0336 12.2557 19.25 13.0391 19.25 14.0053V16.7765L18.7373 16.264C18.0537 15.5805 16.9463 15.5805 16.2627 16.264L15.75 16.7765V14.0053C15.75 13.0391 14.9664 12.2557 14 12.2557ZM31.5 14.0053V16.7765L30.9873 16.264C30.3037 15.5805 29.1963 15.5805 28.5127 16.264L28 16.7765V14.0053C28 13.0391 27.2164 12.2557 26.25 12.2557C25.2836 12.2557 24.5 13.0391 24.5 14.0053V21.0001C24.5 21.7074 24.9264 22.3456 25.5801 22.6164C26.2338 22.8855 26.9857 22.7368 27.4873 22.2371L29.75 19.975L32.0127 22.2371C32.3477 22.572 32.7946 22.7496 33.25 22.7496C33.4756 22.7496 33.7029 22.7061 33.9199 22.6164C34.5736 22.3456 35 21.7074 35 21.0001V14.0053C35 13.0391 34.2164 12.2557 33.25 12.2557C32.2836 12.2557 31.5 13.0391 31.5 14.0053ZM5.86523 25.28C5.32776 24.4753 4.2417 24.26 3.43762 24.7974C2.6344 25.3347 2.41821 26.4205 2.95483 27.2244C5.92078 31.6606 10.6504 34.4669 15.8876 34.9188C15.9473 34.9256 16.007 34.922 16.0667 34.9278C16.0726 34.9279 16.0782 34.9299 16.0841 34.9299L16.0902 34.9291C16.5602 34.9736 17.03 35 17.5 35C18.0375 35 18.575 34.9795 19.068 34.9231C24.3496 34.4669 29.0792 31.6606 32.0452 27.2244C32.5818 26.4205 32.3656 25.3347 31.5624 24.7974C30.7574 24.2609 29.6722 24.4753 29.1348 25.28C27.198 28.1776 24.3155 30.1848 21.0062 31.0323C22.0366 29.8208 22.9464 28.5009 23.6925 27.0535C24.136 26.195 23.7985 25.1399 22.9388 24.6974C22.0809 24.2549 21.0239 24.5915 20.5822 25.4509C19.7616 27.0415 18.7253 28.464 17.5 29.7054C16.2753 28.4649 15.2387 27.0421 14.4178 25.4509C13.9761 24.5915 12.9208 24.2549 12.0612 24.6974C11.2015 25.1399 10.864 26.195 11.3075 27.0535C12.0549 28.5032 12.9665 29.8251 13.9985 31.0376C10.701 30.1969 7.80782 28.1863 5.86523 25.28ZM5.86523 9.72874C7.80472 6.82654 10.6926 4.8176 14.0075 3.97261C12.9675 5.18867 12.0525 6.51035 11.3075 7.95525C10.864 8.8138 11.2015 9.86884 12.0612 10.3114C12.3175 10.4438 12.5909 10.5061 12.861 10.5061C13.4958 10.5061 14.1077 10.161 14.4178 9.55788C15.2289 7.98558 16.261 6.57196 17.5005 5.31949C18.7315 6.56267 19.7682 7.98003 20.5822 9.55788C20.8923 10.161 21.5042 10.5061 22.139 10.5061C22.4091 10.5061 22.6825 10.4438 22.9388 10.3114C23.7985 9.86884 24.136 8.8138 23.6925 7.95525C22.9451 6.50586 22.0277 5.1813 20.9902 3.96791C24.292 4.80628 27.1899 6.81853 29.1348 9.72874C29.4723 10.2336 30.0269 10.5061 30.5917 10.5061C30.9258 10.5061 31.2633 10.4104 31.5624 10.2114C32.3656 9.67406 32.5818 8.58827 32.0452 7.7844C29.0792 3.34728 24.3488 0.540971 19.1124 0.089913C18.0375 -0.0313946 16.9181 -0.0271238 15.932 0.0856424C15.8744 0.0905552 15.8192 0.104436 15.7619 0.109989C15.7568 0.110843 15.752 0.111163 15.747 0.112125C10.5419 0.616788 5.88564 3.39981 2.95483 7.7844C2.41821 8.58827 2.6344 9.67406 3.43762 10.2114C4.24341 10.7462 5.32776 10.5318 5.86523 9.72874Z" fill="#361C25"/>
</svg>
