<svg width="32" height="35" viewBox="0 0 32 35" fill="none" xmlns="http://www.w3.org/2000/svg">
<path d="M24.544 6.055C24.1643 6.055 23.793 6.17816 23.4773 6.40891C23.1616 6.63967 22.9155 6.96764 22.7702 7.35137C22.6248 7.73509 22.5868 8.15733 22.6609 8.56469C22.735 8.97205 22.9178 9.34623 23.1864 9.63992C23.4549 9.93361 23.797 10.1336 24.1694 10.2146C24.5419 10.2957 24.9279 10.2541 25.2788 10.0951C25.6296 9.9362 25.9294 9.66704 26.1404 9.3217C26.3514 8.97635 26.464 8.57034 26.464 8.155C26.464 7.59805 26.2617 7.0639 25.9016 6.67008C25.5416 6.27625 25.0532 6.055 24.544 6.055ZM31.904 10.29C31.8729 8.83802 31.6242 7.40145 31.168 6.0375C30.7612 4.87048 30.128 3.81374 29.312 2.94C28.5197 2.043 27.5513 1.35481 26.48 0.9275C25.2363 0.413281 23.9214 0.135117 22.592 0.105C20.896 -9.68575e-08 20.352 0 16 0C11.648 0 11.104 -9.68575e-08 9.408 0.105C8.07864 0.135117 6.76375 0.413281 5.52 0.9275C4.45068 1.35913 3.48309 2.04673 2.688 2.94C1.86788 3.80656 1.23868 4.86577 0.848 6.0375C0.377857 7.39785 0.123536 8.83602 0.0959999 10.29C-8.9407e-08 12.145 0 12.74 0 17.5C0 22.26 -8.9407e-08 22.855 0.0959999 24.71C0.123536 26.164 0.377857 27.6021 0.848 28.9625C1.23868 30.1342 1.86788 31.1934 2.688 32.06C3.48309 32.9533 4.45068 33.6409 5.52 34.0725C6.76375 34.5867 8.07864 34.8649 9.408 34.895C11.104 35 11.648 35 16 35C20.352 35 20.896 35 22.592 34.895C23.9214 34.8649 25.2363 34.5867 26.48 34.0725C27.5513 33.6452 28.5197 32.957 29.312 32.06C30.1316 31.1895 30.7653 30.1318 31.168 28.9625C31.6242 27.5985 31.8729 26.162 31.904 24.71C31.904 22.855 32 22.26 32 17.5C32 12.74 32 12.145 31.904 10.29ZM29.024 24.5C29.0124 25.6108 28.8284 26.7115 28.48 27.755C28.2245 28.5166 27.8142 29.2047 27.28 29.7675C26.761 30.3459 26.1332 30.7938 25.44 31.08C24.4859 31.4611 23.4796 31.6623 22.464 31.675C20.864 31.7625 20.272 31.78 16.064 31.78C11.856 31.78 11.264 31.78 9.664 31.675C8.60943 31.6966 7.55935 31.519 6.56 31.15C5.89725 30.8491 5.29817 30.4024 4.8 29.8375C4.26894 29.2753 3.86375 28.5866 3.616 27.825C3.22537 26.7665 3.00871 25.6409 2.976 24.5C2.976 22.75 2.88 22.1025 2.88 17.5C2.88 12.8975 2.88 12.25 2.976 10.5C2.98317 9.36435 3.17272 8.2389 3.536 7.175C3.81768 6.43634 4.25002 5.7779 4.8 5.25C5.2861 4.64829 5.88686 4.17042 6.56 3.85C7.53528 3.46508 8.5632 3.26389 9.6 3.255C11.2 3.255 11.792 3.15 16 3.15C20.208 3.15 20.8 3.15 22.4 3.255C23.4156 3.26774 24.4219 3.46893 25.376 3.85C26.1031 4.14514 26.7557 4.62498 27.28 5.25C27.8043 5.78756 28.214 6.44478 28.48 7.175C28.8356 8.24063 29.0197 9.36561 29.024 10.5C29.104 12.25 29.12 12.8975 29.12 17.5C29.12 22.1025 29.104 22.75 29.024 24.5ZM16 8.5225C14.3773 8.52596 12.7919 9.05542 11.4442 10.044C10.0966 11.0325 9.04701 12.4358 8.42821 14.0766C7.80942 15.7173 7.64916 17.5218 7.96767 19.2621C8.28618 21.0024 9.06918 22.6004 10.2177 23.8542C11.3663 25.108 12.8288 25.9613 14.4206 26.3063C16.0123 26.6512 17.6619 26.4724 19.1607 25.7924C20.6596 25.1124 21.9406 23.9618 22.8418 22.4858C23.743 21.0098 24.224 19.2748 24.224 17.5C24.2261 16.3189 24.0147 15.1491 23.602 14.0577C23.1892 12.9663 22.5833 11.9749 21.819 11.1406C21.0547 10.3063 20.1471 9.64544 19.1485 9.19613C18.1498 8.74682 17.0798 8.51788 16 8.5225ZM16 23.3275C14.9462 23.3275 13.9161 22.9857 13.0399 22.3454C12.1637 21.7051 11.4808 20.7949 11.0776 19.7301C10.6743 18.6653 10.5688 17.4935 10.7744 16.3631C10.98 15.2327 11.4874 14.1943 12.2325 13.3793C12.9777 12.5643 13.927 12.0093 14.9606 11.7845C15.9941 11.5596 17.0654 11.675 18.0389 12.1161C19.0125 12.5572 19.8446 13.3041 20.4301 14.2624C21.0155 15.2207 21.328 16.3474 21.328 17.5C21.328 18.2653 21.1902 19.0231 20.9224 19.7301C20.6547 20.4371 20.2622 21.0795 19.7675 21.6207C19.2727 22.1618 18.6854 22.591 18.0389 22.8839C17.3925 23.1768 16.6997 23.3275 16 23.3275Z" fill="#361C25"/>
</svg>
