<svg width="35" height="35" viewBox="0 0 35 35" fill="none" xmlns="http://www.w3.org/2000/svg">
<path d="M28.4375 0C30.2452 0 31.7909 0.641819 33.0745 1.92546C34.3582 3.20909 35 4.75477 35 6.5625V28.4375C35 30.2452 34.3582 31.7909 33.0745 33.0745C31.7909 34.3582 30.2452 35 28.4375 35H24.1536V21.4421H28.6882L29.3717 16.1556H24.1536V12.7832C24.1536 11.9325 24.3321 11.2945 24.6891 10.8691C25.0461 10.4438 25.7411 10.2311 26.7741 10.2311L29.554 10.2083V5.49154C28.597 5.35482 27.245 5.28646 25.498 5.28646C23.4321 5.28646 21.7801 5.8941 20.542 7.10938C19.3039 8.32465 18.6849 10.0412 18.6849 12.2591V16.1556H14.1276V21.4421H18.6849V35H6.5625C4.75477 35 3.20909 34.3582 1.92546 33.0745C0.641819 31.7909 0 30.2452 0 28.4375V6.5625C0 4.75477 0.641819 3.20909 1.92546 1.92546C3.20909 0.641819 4.75477 0 6.5625 0H28.4375Z" fill="#361C25"/>
</svg>
